Coordinates
version=1
nRows=6
nColumns=46
inDegrees=yes

Units are S.I. units (second, meters, Newtons, ...)
Angles are in degrees.

endheader
time	pelvis_tilt	pelvis_list	pelvis_rotation	pelvis_tx	pelvis_ty	pelvis_tz	bb_angle	bb_tx	bb_ty	bb_tz	hip_flexion_r	hip_adduction_r	hip_rotation_r	knee_angle_r	knee_angle_r_beta	ankle_angle_r	subtalar_angle_r	mtp_angle_r	crank_angle_r	hip_flexion_l	hip_adduction_l	hip_rotation_l	knee_angle_l	knee_angle_l_beta	ankle_angle_l	subtalar_angle_l	mtp_angle_l	crank_angle_l	lumbar_extension	lumbar_bending	lumbar_rotation	arm_flex_r	arm_add_r	arm_rot_r	elbow_flex_r	pro_sup_r	wrist_flex_r	wrist_dev_r	arm_flex_l	arm_add_l	arm_rot_l	elbow_flex_l	pro_sup_l	wrist_flex_l	wrist_dev_l
      0.00500000	    -17.79627708	     -6.47921249	     -4.22369023	      0.16104580	      1.12362293	     -0.22277969	      0.00000000	      0.50000000	      0.00000000	      0.25000000	     79.24115739	      1.34904400	     -0.88746719	    107.39694669	      1.87443033	     27.84250952	     -3.99210321	      0.00000000	      0.00000000	     34.82614582	    -12.72230215	     -5.48608945	     16.65578537	      0.29069829	     -9.06496923	      7.65540711	      0.00000000	      0.00000000	    -51.36330924	      3.20976578	      5.85629394	     87.37626485	     -4.02596156	     36.09961158	     33.39708078	     33.30307124	      0.00000000	      0.00000000	     87.29593187	    -11.85378570	     37.47225284	     34.13314918	     34.25321013	      0.00000000	      0.00000000
      0.01000000	    -17.81308400	     -6.49133500	     -4.22759192	      0.16102032	      1.12359054	     -0.22282634	      0.00000000	      0.50000000	      0.00000000	      0.25000000	     79.25887179	      1.34737580	     -0.90240746	    107.39726005	      1.87443580	     27.83315511	     -3.98587654	      0.00000000	      0.00000000	     34.85190115	    -12.72967409	     -5.45241882	     16.66717653	      0.29089711	     -9.08246746	      7.60326262	      0.00000000	      0.00000000	    -51.35848722	      3.20438216	      5.92470977	     87.39728464	     -4.28918244	     36.37424655	     33.35263954	     34.59206001	      0.00000000	      0.00000000	     87.37069925	    -11.91683441	     37.96495744	     33.96257894	     35.50344496	      0.00000000	      0.00000000
      0.01500000	    -17.76840063	     -6.43749336	     -4.34197354	      0.16114702	      1.12369617	     -0.22262385	      0.00000000	      0.50000000	      0.00000000	      0.25000000	     79.21855610	      1.46409253	     -0.82996521	    107.38844042	      1.87428186	     27.78797629	     -4.12656857	      0.00000000	      0.00000000	     34.76610289	    -12.77860846	     -5.77608566	     16.68780681	      0.29125717	     -9.01102203	      7.86472678	      0.00000000	      0.00000000	    -51.41824026	      3.07489908	      5.95534006	     87.33120820	     -4.29572286	     36.26047305	     33.53054178	     34.38015355	      0.00000000	      0.00000000	     87.37220078	    -11.94579944	     37.92057682	     34.08203827	     35.30045325	      0.00000000	      0.00000000
      0.02000000	    -17.95112402	     -6.71907981	     -4.36772837	      0.16062475	      1.12345444	     -0.22223821	      0.00000000	      0.50000000	      0.00000000	      0.25000000	     79.29492149	      1.64335381	     -1.04929563	    107.34704638	      1.87355940	     28.01565630	     -3.67990596	      0.00000000	      0.00000000	     35.33763733	    -13.22530016	     -5.36199751	     17.40291852	      0.30373823	     -8.37739858	      7.23207485	      0.00000000	      0.00000000	    -51.32233790	      3.29873458	      6.06907514	     87.49492684	     -4.31592581	     36.64121977	     33.26160086	     36.01200013	      0.00000000	      0.00000000	     87.38676391	    -13.28461053	     40.22608226	     35.16110258	     37.25255314	      0.00000000	      0.00000000
      0.02500000	    -18.07357222	     -6.87977811	     -4.32390908	      0.16018213	      1.12362309	     -0.22207946	      0.00000000	      0.50000000	      0.00000000	      0.25000000	     79.39679046	      1.86215533	     -1.19970879	    107.30771774	      1.87287299	     28.06114693	     -3.66397952	      0.00000000	      0.00000000	     35.26317027	    -13.23466190	     -4.16097295	     17.02667609	      0.29717156	     -8.50285529	      6.11898363	      0.00000000	      0.00000000	    -51.22980064	      3.40634803	      6.17457254	     87.40851868	     -3.98643057	     35.39955583	     33.01514179	     36.41609004	      0.00000000	      0.00000000	     87.24493234	    -13.37240429	     39.80183861	     35.47381608	     37.78128710	      0.00000000	      0.00000000
      0.03000000	    -18.21408719	     -7.15225942	     -4.27220573	      0.15977852	      1.12313912	     -0.22140465	      0.00000000	      0.50000000	      0.00000000	      0.25000000	     79.52406705	      2.01777257	     -1.50804645	    107.27284990	      1.87226443	     28.04161827	     -3.82305113	      0.00000000	      0.00000000	     34.98383733	    -13.00964063	     -2.21038464	     15.92094889	      0.27787298	     -9.54769893	      4.01626768	      0.00000000	      0.00000000	    -51.07680286	      3.50545357	      6.43055896	     87.45522777	     -4.54935566	     36.10248893	     33.20414426	     36.64797712	      0.00000000	      0.00000000	     87.52131537	    -12.52188993	     39.54219612	     34.58823295	     37.70175334	      0.00000000	      0.00000000
